<svg width="1200" height="630" viewBox="0 0 1200 630" fill="none" xmlns="http://www.w3.org/2000/svg">
  <rect width="1200" height="630" fill="#050707"/>
  <circle cx="1010" cy="120" r="260" fill="#0E3F46" opacity="0.28"/>
  <circle cx="210" cy="520" r="260" fill="#0A1D22" opacity="0.72"/>
  <rect x="82" y="76" width="1036" height="478" rx="42" fill="#080B0C" stroke="#1F2C2E" stroke-width="2"/>
  <rect x="132" y="132" width="82" height="82" rx="23" fill="#050707" stroke="#1E3A3F" stroke-width="2"/>
  <path d="M173 149L206 182L173 215L140 182L173 149Z" fill="#081314" stroke="#9BEAF3" stroke-width="5"/>
  <path d="M173 165L190 182L173 199L156 182L173 165Z" fill="#0D2A2E" stroke="#2DD4BF" stroke-width="4"/>
  <circle cx="173" cy="182" r="7" fill="#CFFAFE"/>
  <path d="M150 182H165M181 182H196" stroke="#E6FFFB" stroke-width="4" stroke-linecap="round"/>
  <text x="246" y="185" fill="#F7FAFA" font-family="Geist, Inter, system-ui, sans-serif" font-size="62" font-weight="700" letter-spacing="-3.6">OpenRx</text>
  <text x="136" y="328" fill="#F7FAFA" font-family="Geist, Inter, system-ui, sans-serif" font-size="64" font-weight="680" letter-spacing="-3.8">Answer to prior auth action.</text>
  <text x="138" y="390" fill="#A6B6B9" font-family="Geist, Inter, system-ui, sans-serif" font-size="25" font-weight="450" letter-spacing="-0.5">Source-linked appeal preparation in one clinical chat.</text>
  <rect x="138" y="446" width="212" height="48" rx="24" fill="#A5F3FC"/>
  <text x="171" y="477" fill="#050707" font-family="Geist, Inter, system-ui, sans-serif" font-size="18" font-weight="700">Open PA demo</text>
</svg>
